<?xml version="1.0" encoding="UTF-8"?>
<mxfile host="app.diagrams.net" agent="Mozilla/5.0 (Windows NT 10.0; Win64; x64) AppleWebKit/537.36 (KHTML, like Gecko) Chrome/135.0.0.0 Safari/537.36" version="26.2.12">
  <diagram name="페이지-1" id="sHDXftvFkPYjGJGkGRN4">
    <mxGraphModel dx="1905" dy="1018" grid="1" gridSize="10" guides="1" tooltips="1" connect="1" arrows="1" fold="1" page="1" pageScale="1" pageWidth="827" pageHeight="1169" math="0" shadow="0">
      <root>
        <mxCell id="0" />
        <mxCell id="1" parent="0" />
        <mxCell id="a1uwsUOOXNVNwIbw0LLK-62" value="" style="rounded=0;whiteSpace=wrap;html=1;" parent="1" vertex="1">
          <mxGeometry x="30" y="90" width="770" height="740" as="geometry" />
        </mxCell>
        <mxCell id="a1uwsUOOXNVNwIbw0LLK-36" style="edgeStyle=orthogonalEdgeStyle;rounded=0;orthogonalLoop=1;jettySize=auto;html=1;exitX=0.25;exitY=1;exitDx=0;exitDy=0;entryX=0.25;entryY=0;entryDx=0;entryDy=0;" parent="1" source="a1uwsUOOXNVNwIbw0LLK-4" edge="1">
          <mxGeometry relative="1" as="geometry">
            <mxPoint x="125" y="860" as="targetPoint" />
          </mxGeometry>
        </mxCell>
        <mxCell id="a1uwsUOOXNVNwIbw0LLK-37" style="edgeStyle=orthogonalEdgeStyle;rounded=0;orthogonalLoop=1;jettySize=auto;html=1;exitX=0.5;exitY=1;exitDx=0;exitDy=0;entryX=0.5;entryY=0;entryDx=0;entryDy=0;" parent="1" source="a1uwsUOOXNVNwIbw0LLK-4" edge="1">
          <mxGeometry relative="1" as="geometry">
            <mxPoint x="210" y="860" as="targetPoint" />
          </mxGeometry>
        </mxCell>
        <mxCell id="a1uwsUOOXNVNwIbw0LLK-38" style="edgeStyle=orthogonalEdgeStyle;rounded=0;orthogonalLoop=1;jettySize=auto;html=1;exitX=0.75;exitY=1;exitDx=0;exitDy=0;entryX=0.75;entryY=0;entryDx=0;entryDy=0;" parent="1" source="a1uwsUOOXNVNwIbw0LLK-4" edge="1">
          <mxGeometry relative="1" as="geometry">
            <mxPoint x="295" y="860" as="targetPoint" />
          </mxGeometry>
        </mxCell>
        <mxCell id="a1uwsUOOXNVNwIbw0LLK-4" value="" style="rounded=0;whiteSpace=wrap;html=1;" parent="1" vertex="1">
          <mxGeometry x="40" y="485" width="340" height="335" as="geometry" />
        </mxCell>
        <mxCell id="a1uwsUOOXNVNwIbw0LLK-21" style="edgeStyle=orthogonalEdgeStyle;rounded=0;orthogonalLoop=1;jettySize=auto;html=1;exitX=0.5;exitY=1;exitDx=0;exitDy=0;entryX=0.5;entryY=0;entryDx=0;entryDy=0;" parent="1" source="a1uwsUOOXNVNwIbw0LLK-5" target="a1uwsUOOXNVNwIbw0LLK-4" edge="1">
          <mxGeometry relative="1" as="geometry" />
        </mxCell>
        <mxCell id="a1uwsUOOXNVNwIbw0LLK-22" style="edgeStyle=orthogonalEdgeStyle;rounded=0;orthogonalLoop=1;jettySize=auto;html=1;exitX=0.25;exitY=1;exitDx=0;exitDy=0;entryX=0.25;entryY=0;entryDx=0;entryDy=0;" parent="1" source="a1uwsUOOXNVNwIbw0LLK-5" target="a1uwsUOOXNVNwIbw0LLK-4" edge="1">
          <mxGeometry relative="1" as="geometry" />
        </mxCell>
        <mxCell id="a1uwsUOOXNVNwIbw0LLK-23" style="edgeStyle=orthogonalEdgeStyle;rounded=0;orthogonalLoop=1;jettySize=auto;html=1;exitX=0.75;exitY=1;exitDx=0;exitDy=0;entryX=0.75;entryY=0;entryDx=0;entryDy=0;" parent="1" source="a1uwsUOOXNVNwIbw0LLK-5" target="a1uwsUOOXNVNwIbw0LLK-4" edge="1">
          <mxGeometry relative="1" as="geometry" />
        </mxCell>
        <mxCell id="a1uwsUOOXNVNwIbw0LLK-5" value="" style="rounded=0;whiteSpace=wrap;html=1;" parent="1" vertex="1">
          <mxGeometry x="40" y="100" width="340" height="340" as="geometry" />
        </mxCell>
        <mxCell id="a1uwsUOOXNVNwIbw0LLK-6" value="" style="rounded=0;whiteSpace=wrap;html=1;" parent="1" vertex="1">
          <mxGeometry x="450" y="100" width="340" height="340" as="geometry" />
        </mxCell>
        <mxCell id="a1uwsUOOXNVNwIbw0LLK-59" style="edgeStyle=orthogonalEdgeStyle;rounded=0;orthogonalLoop=1;jettySize=auto;html=1;exitX=0.25;exitY=0;exitDx=0;exitDy=0;entryX=0.25;entryY=1;entryDx=0;entryDy=0;" parent="1" source="a1uwsUOOXNVNwIbw0LLK-7" target="a1uwsUOOXNVNwIbw0LLK-6" edge="1">
          <mxGeometry relative="1" as="geometry" />
        </mxCell>
        <mxCell id="a1uwsUOOXNVNwIbw0LLK-60" style="edgeStyle=orthogonalEdgeStyle;rounded=0;orthogonalLoop=1;jettySize=auto;html=1;exitX=0.5;exitY=0;exitDx=0;exitDy=0;entryX=0.5;entryY=1;entryDx=0;entryDy=0;" parent="1" source="a1uwsUOOXNVNwIbw0LLK-7" target="a1uwsUOOXNVNwIbw0LLK-6" edge="1">
          <mxGeometry relative="1" as="geometry" />
        </mxCell>
        <mxCell id="a1uwsUOOXNVNwIbw0LLK-61" style="edgeStyle=orthogonalEdgeStyle;rounded=0;orthogonalLoop=1;jettySize=auto;html=1;exitX=0.75;exitY=0;exitDx=0;exitDy=0;entryX=0.75;entryY=1;entryDx=0;entryDy=0;" parent="1" source="a1uwsUOOXNVNwIbw0LLK-7" target="a1uwsUOOXNVNwIbw0LLK-6" edge="1">
          <mxGeometry relative="1" as="geometry" />
        </mxCell>
        <mxCell id="a1uwsUOOXNVNwIbw0LLK-7" value="" style="rounded=0;whiteSpace=wrap;html=1;" parent="1" vertex="1">
          <mxGeometry x="450" y="485" width="340" height="335" as="geometry" />
        </mxCell>
        <mxCell id="a1uwsUOOXNVNwIbw0LLK-12" value="" style="endArrow=classic;startArrow=classic;html=1;rounded=0;" parent="1" edge="1">
          <mxGeometry width="50" height="50" relative="1" as="geometry">
            <mxPoint x="149.5" y="90" as="sourcePoint" />
            <mxPoint x="149.5" y="40" as="targetPoint" />
          </mxGeometry>
        </mxCell>
        <mxCell id="a1uwsUOOXNVNwIbw0LLK-13" value="" style="endArrow=classic;startArrow=classic;html=1;rounded=0;" parent="1" edge="1">
          <mxGeometry width="50" height="50" relative="1" as="geometry">
            <mxPoint x="209.5" y="90" as="sourcePoint" />
            <mxPoint x="209.5" y="40" as="targetPoint" />
          </mxGeometry>
        </mxCell>
        <mxCell id="a1uwsUOOXNVNwIbw0LLK-14" value="" style="endArrow=classic;startArrow=classic;html=1;rounded=0;" parent="1" edge="1">
          <mxGeometry width="50" height="50" relative="1" as="geometry">
            <mxPoint x="269.5" y="90" as="sourcePoint" />
            <mxPoint x="269.5" y="40" as="targetPoint" />
          </mxGeometry>
        </mxCell>
        <mxCell id="a1uwsUOOXNVNwIbw0LLK-15" value="" style="endArrow=classic;startArrow=classic;html=1;rounded=0;" parent="1" edge="1">
          <mxGeometry width="50" height="50" relative="1" as="geometry">
            <mxPoint x="559.5" y="90" as="sourcePoint" />
            <mxPoint x="559.5" y="40" as="targetPoint" />
          </mxGeometry>
        </mxCell>
        <mxCell id="a1uwsUOOXNVNwIbw0LLK-16" value="" style="endArrow=classic;startArrow=classic;html=1;rounded=0;" parent="1" edge="1">
          <mxGeometry width="50" height="50" relative="1" as="geometry">
            <mxPoint x="619.5" y="90" as="sourcePoint" />
            <mxPoint x="619.5" y="40" as="targetPoint" />
          </mxGeometry>
        </mxCell>
        <mxCell id="a1uwsUOOXNVNwIbw0LLK-17" value="" style="endArrow=classic;startArrow=classic;html=1;rounded=0;" parent="1" edge="1">
          <mxGeometry width="50" height="50" relative="1" as="geometry">
            <mxPoint x="679.5" y="90" as="sourcePoint" />
            <mxPoint x="679.5" y="40" as="targetPoint" />
          </mxGeometry>
        </mxCell>
        <mxCell id="a1uwsUOOXNVNwIbw0LLK-18" value="AXI" style="text;html=1;align=center;verticalAlign=middle;whiteSpace=wrap;rounded=0;" parent="1" vertex="1">
          <mxGeometry x="280" y="50" width="60" height="30" as="geometry" />
        </mxCell>
        <mxCell id="a1uwsUOOXNVNwIbw0LLK-19" value="AXI" style="text;html=1;align=center;verticalAlign=middle;whiteSpace=wrap;rounded=0;" parent="1" vertex="1">
          <mxGeometry x="690" y="50" width="60" height="30" as="geometry" />
        </mxCell>
        <mxCell id="a1uwsUOOXNVNwIbw0LLK-31" style="edgeStyle=orthogonalEdgeStyle;rounded=0;orthogonalLoop=1;jettySize=auto;html=1;exitX=0.25;exitY=1;exitDx=0;exitDy=0;entryX=0.25;entryY=0;entryDx=0;entryDy=0;" parent="1" edge="1">
          <mxGeometry relative="1" as="geometry">
            <mxPoint x="125" y="920" as="sourcePoint" />
            <mxPoint x="125" y="950" as="targetPoint" />
          </mxGeometry>
        </mxCell>
        <mxCell id="a1uwsUOOXNVNwIbw0LLK-32" style="edgeStyle=orthogonalEdgeStyle;rounded=0;orthogonalLoop=1;jettySize=auto;html=1;exitX=0.5;exitY=1;exitDx=0;exitDy=0;entryX=0.5;entryY=0;entryDx=0;entryDy=0;" parent="1" edge="1">
          <mxGeometry relative="1" as="geometry">
            <mxPoint x="210" y="920" as="sourcePoint" />
            <mxPoint x="210" y="950" as="targetPoint" />
          </mxGeometry>
        </mxCell>
        <mxCell id="a1uwsUOOXNVNwIbw0LLK-33" style="edgeStyle=orthogonalEdgeStyle;rounded=0;orthogonalLoop=1;jettySize=auto;html=1;exitX=0.75;exitY=1;exitDx=0;exitDy=0;entryX=0.75;entryY=0;entryDx=0;entryDy=0;" parent="1" edge="1">
          <mxGeometry relative="1" as="geometry">
            <mxPoint x="295" y="920" as="sourcePoint" />
            <mxPoint x="295" y="950" as="targetPoint" />
          </mxGeometry>
        </mxCell>
        <mxCell id="a1uwsUOOXNVNwIbw0LLK-26" value="" style="rounded=0;whiteSpace=wrap;html=1;" parent="1" vertex="1">
          <mxGeometry x="40" y="860" width="750" height="60" as="geometry" />
        </mxCell>
        <mxCell id="a1uwsUOOXNVNwIbw0LLK-27" value="Physical layer" style="text;html=1;align=center;verticalAlign=middle;whiteSpace=wrap;rounded=0;" parent="1" vertex="1">
          <mxGeometry x="366.5" y="875" width="95" height="30" as="geometry" />
        </mxCell>
        <mxCell id="a1uwsUOOXNVNwIbw0LLK-75" value="" style="rounded=0;whiteSpace=wrap;html=1;" parent="1" vertex="1">
          <mxGeometry x="130" y="110" width="160" height="130" as="geometry" />
        </mxCell>
        <mxCell id="a1uwsUOOXNVNwIbw0LLK-76" value="" style="shape=datastore;whiteSpace=wrap;html=1;rotation=-180;" parent="1" vertex="1">
          <mxGeometry x="50" y="330" width="60" height="60" as="geometry" />
        </mxCell>
        <mxCell id="a1uwsUOOXNVNwIbw0LLK-77" value="" style="shape=datastore;whiteSpace=wrap;html=1;rotation=-180;" parent="1" vertex="1">
          <mxGeometry x="115" y="330" width="60" height="60" as="geometry" />
        </mxCell>
        <mxCell id="a1uwsUOOXNVNwIbw0LLK-78" value="" style="rounded=0;whiteSpace=wrap;html=1;" parent="1" vertex="1">
          <mxGeometry x="150" y="250" width="120" height="30" as="geometry" />
        </mxCell>
        <mxCell id="a1uwsUOOXNVNwIbw0LLK-215" style="edgeStyle=orthogonalEdgeStyle;rounded=0;orthogonalLoop=1;jettySize=auto;html=1;exitX=0.5;exitY=1;exitDx=0;exitDy=0;entryX=0.5;entryY=0;entryDx=0;entryDy=0;" parent="1" source="a1uwsUOOXNVNwIbw0LLK-79" target="a1uwsUOOXNVNwIbw0LLK-80" edge="1">
          <mxGeometry relative="1" as="geometry" />
        </mxCell>
        <mxCell id="a1uwsUOOXNVNwIbw0LLK-79" value="" style="rounded=0;whiteSpace=wrap;html=1;" parent="1" vertex="1">
          <mxGeometry x="260" y="310" width="100" height="50" as="geometry" />
        </mxCell>
        <mxCell id="a1uwsUOOXNVNwIbw0LLK-80" value="" style="rounded=0;whiteSpace=wrap;html=1;" parent="1" vertex="1">
          <mxGeometry x="260" y="375" width="100" height="50" as="geometry" />
        </mxCell>
        <mxCell id="a1uwsUOOXNVNwIbw0LLK-81" value="" style="rounded=0;whiteSpace=wrap;html=1;" parent="1" vertex="1">
          <mxGeometry x="80" y="400" width="120" height="30" as="geometry" />
        </mxCell>
        <mxCell id="a1uwsUOOXNVNwIbw0LLK-233" style="edgeStyle=orthogonalEdgeStyle;rounded=0;orthogonalLoop=1;jettySize=auto;html=1;exitX=0;exitY=0.5;exitDx=0;exitDy=0;entryX=1;entryY=0.5;entryDx=0;entryDy=0;" parent="1" source="a1uwsUOOXNVNwIbw0LLK-83" target="a1uwsUOOXNVNwIbw0LLK-79" edge="1">
          <mxGeometry relative="1" as="geometry" />
        </mxCell>
        <mxCell id="a1uwsUOOXNVNwIbw0LLK-83" value="" style="rounded=0;whiteSpace=wrap;html=1;" parent="1" vertex="1">
          <mxGeometry x="470" y="310" width="100" height="50" as="geometry" />
        </mxCell>
        <mxCell id="on6ZJ3tJFzt3UGrgcicv-4" style="edgeStyle=orthogonalEdgeStyle;rounded=0;orthogonalLoop=1;jettySize=auto;html=1;exitX=0.5;exitY=0;exitDx=0;exitDy=0;entryX=0.5;entryY=1;entryDx=0;entryDy=0;" parent="1" source="a1uwsUOOXNVNwIbw0LLK-84" target="a1uwsUOOXNVNwIbw0LLK-83" edge="1">
          <mxGeometry relative="1" as="geometry" />
        </mxCell>
        <mxCell id="a1uwsUOOXNVNwIbw0LLK-84" value="" style="rounded=0;whiteSpace=wrap;html=1;" parent="1" vertex="1">
          <mxGeometry x="470" y="375" width="100" height="50" as="geometry" />
        </mxCell>
        <mxCell id="on6ZJ3tJFzt3UGrgcicv-6" style="edgeStyle=orthogonalEdgeStyle;rounded=0;orthogonalLoop=1;jettySize=auto;html=1;exitX=0.5;exitY=0;exitDx=0;exitDy=0;entryX=0.5;entryY=1;entryDx=0;entryDy=0;" parent="1" source="a1uwsUOOXNVNwIbw0LLK-87" target="a1uwsUOOXNVNwIbw0LLK-242" edge="1">
          <mxGeometry relative="1" as="geometry" />
        </mxCell>
        <mxCell id="a1uwsUOOXNVNwIbw0LLK-87" value="" style="shape=datastore;whiteSpace=wrap;html=1;rotation=0;" parent="1" vertex="1">
          <mxGeometry x="582.5" y="185" width="60" height="60" as="geometry" />
        </mxCell>
        <mxCell id="a1uwsUOOXNVNwIbw0LLK-88" value="" style="rounded=0;whiteSpace=wrap;html=1;" parent="1" vertex="1">
          <mxGeometry x="300" y="130" width="120" height="30" as="geometry" />
        </mxCell>
        <mxCell id="a1uwsUOOXNVNwIbw0LLK-199" style="edgeStyle=orthogonalEdgeStyle;rounded=0;orthogonalLoop=1;jettySize=auto;html=1;exitX=0.5;exitY=0;exitDx=0;exitDy=0;entryX=0.75;entryY=1;entryDx=0;entryDy=0;" parent="1" source="a1uwsUOOXNVNwIbw0LLK-93" target="a1uwsUOOXNVNwIbw0LLK-95" edge="1">
          <mxGeometry relative="1" as="geometry" />
        </mxCell>
        <mxCell id="a1uwsUOOXNVNwIbw0LLK-93" value="" style="shape=datastore;whiteSpace=wrap;html=1;rotation=-180;" parent="1" vertex="1">
          <mxGeometry x="100" y="620" width="60" height="60" as="geometry" />
        </mxCell>
        <mxCell id="a1uwsUOOXNVNwIbw0LLK-200" style="edgeStyle=orthogonalEdgeStyle;rounded=0;orthogonalLoop=1;jettySize=auto;html=1;exitX=0.5;exitY=0;exitDx=0;exitDy=0;entryX=0.25;entryY=1;entryDx=0;entryDy=0;" parent="1" source="a1uwsUOOXNVNwIbw0LLK-94" target="a1uwsUOOXNVNwIbw0LLK-95" edge="1">
          <mxGeometry relative="1" as="geometry" />
        </mxCell>
        <mxCell id="a1uwsUOOXNVNwIbw0LLK-94" value="" style="shape=datastore;whiteSpace=wrap;html=1;rotation=-180;" parent="1" vertex="1">
          <mxGeometry x="260" y="622.5" width="60" height="60" as="geometry" />
        </mxCell>
        <mxCell id="a1uwsUOOXNVNwIbw0LLK-105" style="edgeStyle=orthogonalEdgeStyle;rounded=0;orthogonalLoop=1;jettySize=auto;html=1;exitX=0.5;exitY=0;exitDx=0;exitDy=0;entryX=0.5;entryY=0;entryDx=0;entryDy=0;" parent="1" source="a1uwsUOOXNVNwIbw0LLK-95" target="a1uwsUOOXNVNwIbw0LLK-96" edge="1">
          <mxGeometry relative="1" as="geometry" />
        </mxCell>
        <mxCell id="a1uwsUOOXNVNwIbw0LLK-95" value="" style="shape=trapezoid;perimeter=trapezoidPerimeter;whiteSpace=wrap;html=1;fixedSize=1;rotation=-180;" parent="1" vertex="1">
          <mxGeometry x="175" y="710" width="70" height="30" as="geometry" />
        </mxCell>
        <mxCell id="a1uwsUOOXNVNwIbw0LLK-96" value="" style="rounded=0;whiteSpace=wrap;html=1;" parent="1" vertex="1">
          <mxGeometry x="150" y="770" width="120" height="30" as="geometry" />
        </mxCell>
        <mxCell id="a1uwsUOOXNVNwIbw0LLK-110" style="edgeStyle=orthogonalEdgeStyle;rounded=0;orthogonalLoop=1;jettySize=auto;html=1;exitX=0.5;exitY=1;exitDx=0;exitDy=0;entryX=0.5;entryY=0;entryDx=0;entryDy=0;" parent="1" source="a1uwsUOOXNVNwIbw0LLK-106" target="a1uwsUOOXNVNwIbw0LLK-108" edge="1">
          <mxGeometry relative="1" as="geometry" />
        </mxCell>
        <mxCell id="a1uwsUOOXNVNwIbw0LLK-106" value="" style="rounded=0;whiteSpace=wrap;html=1;" parent="1" vertex="1">
          <mxGeometry x="150" y="120" width="120" height="30" as="geometry" />
        </mxCell>
        <mxCell id="a1uwsUOOXNVNwIbw0LLK-111" style="edgeStyle=orthogonalEdgeStyle;rounded=0;orthogonalLoop=1;jettySize=auto;html=1;exitX=0.5;exitY=1;exitDx=0;exitDy=0;" parent="1" source="a1uwsUOOXNVNwIbw0LLK-108" target="a1uwsUOOXNVNwIbw0LLK-109" edge="1">
          <mxGeometry relative="1" as="geometry" />
        </mxCell>
        <mxCell id="a1uwsUOOXNVNwIbw0LLK-108" value="" style="rounded=0;whiteSpace=wrap;html=1;" parent="1" vertex="1">
          <mxGeometry x="150" y="160" width="120" height="30" as="geometry" />
        </mxCell>
        <mxCell id="a1uwsUOOXNVNwIbw0LLK-114" value="" style="rounded=0;whiteSpace=wrap;html=1;" parent="1" vertex="1">
          <mxGeometry x="80" y="290" width="120" height="30" as="geometry" />
        </mxCell>
        <mxCell id="a1uwsUOOXNVNwIbw0LLK-112" style="edgeStyle=orthogonalEdgeStyle;rounded=0;orthogonalLoop=1;jettySize=auto;html=1;exitX=0.5;exitY=1;exitDx=0;exitDy=0;" parent="1" source="a1uwsUOOXNVNwIbw0LLK-109" target="a1uwsUOOXNVNwIbw0LLK-78" edge="1">
          <mxGeometry relative="1" as="geometry" />
        </mxCell>
        <mxCell id="a1uwsUOOXNVNwIbw0LLK-109" value="" style="rounded=0;whiteSpace=wrap;html=1;" parent="1" vertex="1">
          <mxGeometry x="150" y="200" width="120" height="30" as="geometry" />
        </mxCell>
        <mxCell id="a1uwsUOOXNVNwIbw0LLK-115" style="edgeStyle=orthogonalEdgeStyle;rounded=0;orthogonalLoop=1;jettySize=auto;html=1;exitX=0.5;exitY=1;exitDx=0;exitDy=0;entryX=0.5;entryY=0;entryDx=0;entryDy=0;" parent="1" source="a1uwsUOOXNVNwIbw0LLK-78" target="a1uwsUOOXNVNwIbw0LLK-114" edge="1">
          <mxGeometry relative="1" as="geometry">
            <Array as="points">
              <mxPoint x="140" y="280" />
            </Array>
          </mxGeometry>
        </mxCell>
        <mxCell id="a1uwsUOOXNVNwIbw0LLK-207" style="edgeStyle=orthogonalEdgeStyle;rounded=0;orthogonalLoop=1;jettySize=auto;html=1;exitX=0;exitY=0.75;exitDx=0;exitDy=0;entryX=0;entryY=0.5;entryDx=0;entryDy=0;" parent="1" source="a1uwsUOOXNVNwIbw0LLK-117" target="a1uwsUOOXNVNwIbw0LLK-95" edge="1">
          <mxGeometry relative="1" as="geometry">
            <Array as="points">
              <mxPoint x="330" y="665" />
              <mxPoint x="330" y="725" />
            </Array>
          </mxGeometry>
        </mxCell>
        <mxCell id="a1uwsUOOXNVNwIbw0LLK-117" value="" style="rounded=0;whiteSpace=wrap;html=1;" parent="1" vertex="1">
          <mxGeometry x="354" y="620" width="120" height="60" as="geometry" />
        </mxCell>
        <mxCell id="a1uwsUOOXNVNwIbw0LLK-197" style="edgeStyle=orthogonalEdgeStyle;rounded=0;orthogonalLoop=1;jettySize=auto;html=1;exitX=0.5;exitY=0;exitDx=0;exitDy=0;entryX=0.5;entryY=1;entryDx=0;entryDy=0;" parent="1" source="a1uwsUOOXNVNwIbw0LLK-118" target="a1uwsUOOXNVNwIbw0LLK-119" edge="1">
          <mxGeometry relative="1" as="geometry" />
        </mxCell>
        <mxCell id="a1uwsUOOXNVNwIbw0LLK-118" value="" style="rounded=0;whiteSpace=wrap;html=1;" parent="1" vertex="1">
          <mxGeometry x="560" y="760" width="120" height="30" as="geometry" />
        </mxCell>
        <mxCell id="a1uwsUOOXNVNwIbw0LLK-198" style="edgeStyle=orthogonalEdgeStyle;rounded=0;orthogonalLoop=1;jettySize=auto;html=1;exitX=0.5;exitY=0;exitDx=0;exitDy=0;entryX=0.5;entryY=1;entryDx=0;entryDy=0;" parent="1" source="a1uwsUOOXNVNwIbw0LLK-119" target="a1uwsUOOXNVNwIbw0LLK-195" edge="1">
          <mxGeometry relative="1" as="geometry" />
        </mxCell>
        <mxCell id="a1uwsUOOXNVNwIbw0LLK-119" value="" style="rounded=0;whiteSpace=wrap;html=1;" parent="1" vertex="1">
          <mxGeometry x="482.5" y="700" width="120" height="30" as="geometry" />
        </mxCell>
        <mxCell id="a1uwsUOOXNVNwIbw0LLK-125" value="" style="rounded=0;whiteSpace=wrap;html=1;" parent="1" vertex="1">
          <mxGeometry x="617.5" y="587.5" width="150" height="142.5" as="geometry" />
        </mxCell>
        <mxCell id="a1uwsUOOXNVNwIbw0LLK-126" value="" style="rounded=0;whiteSpace=wrap;html=1;" parent="1" vertex="1">
          <mxGeometry x="632.5" y="680" width="120" height="30" as="geometry" />
        </mxCell>
        <mxCell id="a1uwsUOOXNVNwIbw0LLK-127" value="" style="rounded=0;whiteSpace=wrap;html=1;" parent="1" vertex="1">
          <mxGeometry x="632.5" y="635" width="120" height="30" as="geometry" />
        </mxCell>
        <mxCell id="a1uwsUOOXNVNwIbw0LLK-134" value="" style="rounded=0;whiteSpace=wrap;html=1;" parent="1" vertex="1">
          <mxGeometry x="60" y="490" width="140" height="120" as="geometry" />
        </mxCell>
        <mxCell id="a1uwsUOOXNVNwIbw0LLK-90" value="" style="rounded=0;whiteSpace=wrap;html=1;" parent="1" vertex="1">
          <mxGeometry x="70" y="567.5" width="120" height="30" as="geometry" />
        </mxCell>
        <mxCell id="a1uwsUOOXNVNwIbw0LLK-89" value="" style="rounded=0;whiteSpace=wrap;html=1;" parent="1" vertex="1">
          <mxGeometry x="70" y="520" width="120" height="30" as="geometry" />
        </mxCell>
        <mxCell id="a1uwsUOOXNVNwIbw0LLK-100" style="edgeStyle=orthogonalEdgeStyle;rounded=0;orthogonalLoop=1;jettySize=auto;html=1;exitX=0.5;exitY=1;exitDx=0;exitDy=0;" parent="1" source="a1uwsUOOXNVNwIbw0LLK-90" target="a1uwsUOOXNVNwIbw0LLK-93" edge="1">
          <mxGeometry relative="1" as="geometry" />
        </mxCell>
        <mxCell id="a1uwsUOOXNVNwIbw0LLK-99" style="edgeStyle=orthogonalEdgeStyle;rounded=0;orthogonalLoop=1;jettySize=auto;html=1;exitX=0.5;exitY=1;exitDx=0;exitDy=0;entryX=0.5;entryY=0;entryDx=0;entryDy=0;" parent="1" source="a1uwsUOOXNVNwIbw0LLK-89" target="a1uwsUOOXNVNwIbw0LLK-90" edge="1">
          <mxGeometry relative="1" as="geometry" />
        </mxCell>
        <mxCell id="a1uwsUOOXNVNwIbw0LLK-236" style="edgeStyle=orthogonalEdgeStyle;rounded=0;orthogonalLoop=1;jettySize=auto;html=1;exitX=0.5;exitY=0;exitDx=0;exitDy=0;entryX=0.5;entryY=1;entryDx=0;entryDy=0;" parent="1" source="a1uwsUOOXNVNwIbw0LLK-152" target="a1uwsUOOXNVNwIbw0LLK-153" edge="1">
          <mxGeometry relative="1" as="geometry" />
        </mxCell>
        <mxCell id="a1uwsUOOXNVNwIbw0LLK-152" value="" style="rounded=0;whiteSpace=wrap;html=1;" parent="1" vertex="1">
          <mxGeometry x="652.5" y="390" width="120" height="30" as="geometry" />
        </mxCell>
        <mxCell id="a1uwsUOOXNVNwIbw0LLK-239" style="edgeStyle=orthogonalEdgeStyle;rounded=0;orthogonalLoop=1;jettySize=auto;html=1;exitX=0.5;exitY=0;exitDx=0;exitDy=0;entryX=0.5;entryY=1;entryDx=0;entryDy=0;" parent="1" source="a1uwsUOOXNVNwIbw0LLK-153" target="a1uwsUOOXNVNwIbw0LLK-238" edge="1">
          <mxGeometry relative="1" as="geometry" />
        </mxCell>
        <mxCell id="a1uwsUOOXNVNwIbw0LLK-153" value="" style="rounded=0;whiteSpace=wrap;html=1;" parent="1" vertex="1">
          <mxGeometry x="652.5" y="330" width="120" height="30" as="geometry" />
        </mxCell>
        <mxCell id="a1uwsUOOXNVNwIbw0LLK-195" value="" style="rounded=0;whiteSpace=wrap;html=1;" parent="1" vertex="1">
          <mxGeometry x="482.5" y="650" width="120" height="30" as="geometry" />
        </mxCell>
        <mxCell id="a1uwsUOOXNVNwIbw0LLK-196" style="edgeStyle=orthogonalEdgeStyle;rounded=0;orthogonalLoop=1;jettySize=auto;html=1;exitX=0.5;exitY=0;exitDx=0;exitDy=0;entryX=0.55;entryY=0.979;entryDx=0;entryDy=0;entryPerimeter=0;" parent="1" source="a1uwsUOOXNVNwIbw0LLK-118" target="a1uwsUOOXNVNwIbw0LLK-125" edge="1">
          <mxGeometry relative="1" as="geometry" />
        </mxCell>
        <mxCell id="a1uwsUOOXNVNwIbw0LLK-208" value="" style="rounded=0;whiteSpace=wrap;html=1;" parent="1" vertex="1">
          <mxGeometry x="225" y="510" width="135" height="100" as="geometry" />
        </mxCell>
        <mxCell id="a1uwsUOOXNVNwIbw0LLK-91" value="" style="rounded=0;whiteSpace=wrap;html=1;" parent="1" vertex="1">
          <mxGeometry x="230" y="520" width="120" height="30" as="geometry" />
        </mxCell>
        <mxCell id="a1uwsUOOXNVNwIbw0LLK-92" value="" style="rounded=0;whiteSpace=wrap;html=1;" parent="1" vertex="1">
          <mxGeometry x="230" y="567.5" width="120" height="30" as="geometry" />
        </mxCell>
        <mxCell id="a1uwsUOOXNVNwIbw0LLK-102" style="edgeStyle=orthogonalEdgeStyle;rounded=0;orthogonalLoop=1;jettySize=auto;html=1;exitX=0.5;exitY=1;exitDx=0;exitDy=0;entryX=0.5;entryY=1;entryDx=0;entryDy=0;" parent="1" source="a1uwsUOOXNVNwIbw0LLK-92" target="a1uwsUOOXNVNwIbw0LLK-94" edge="1">
          <mxGeometry relative="1" as="geometry" />
        </mxCell>
        <mxCell id="a1uwsUOOXNVNwIbw0LLK-101" style="edgeStyle=orthogonalEdgeStyle;rounded=0;orthogonalLoop=1;jettySize=auto;html=1;exitX=0.5;exitY=1;exitDx=0;exitDy=0;entryX=0.5;entryY=0;entryDx=0;entryDy=0;" parent="1" source="a1uwsUOOXNVNwIbw0LLK-91" target="a1uwsUOOXNVNwIbw0LLK-92" edge="1">
          <mxGeometry relative="1" as="geometry" />
        </mxCell>
        <mxCell id="a1uwsUOOXNVNwIbw0LLK-209" value="" style="endArrow=classic;startArrow=classic;html=1;rounded=0;entryX=1;entryY=0.75;entryDx=0;entryDy=0;" parent="1" source="a1uwsUOOXNVNwIbw0LLK-117" target="a1uwsUOOXNVNwIbw0LLK-208" edge="1">
          <mxGeometry width="50" height="50" relative="1" as="geometry">
            <mxPoint x="540" y="950" as="sourcePoint" />
            <mxPoint x="590" y="900" as="targetPoint" />
          </mxGeometry>
        </mxCell>
        <mxCell id="a1uwsUOOXNVNwIbw0LLK-210" value="" style="endArrow=classic;startArrow=classic;html=1;rounded=0;exitX=1;exitY=0.25;exitDx=0;exitDy=0;entryX=0;entryY=0.5;entryDx=0;entryDy=0;" parent="1" edge="1">
          <mxGeometry width="50" height="50" relative="1" as="geometry">
            <mxPoint x="475" y="617.5" as="sourcePoint" />
            <mxPoint x="495" y="650" as="targetPoint" />
          </mxGeometry>
        </mxCell>
        <mxCell id="a1uwsUOOXNVNwIbw0LLK-211" style="edgeStyle=orthogonalEdgeStyle;rounded=0;orthogonalLoop=1;jettySize=auto;html=1;exitX=0.5;exitY=0;exitDx=0;exitDy=0;entryX=0.791;entryY=0.015;entryDx=0;entryDy=0;entryPerimeter=0;" parent="1" source="a1uwsUOOXNVNwIbw0LLK-125" target="a1uwsUOOXNVNwIbw0LLK-7" edge="1">
          <mxGeometry relative="1" as="geometry" />
        </mxCell>
        <mxCell id="a1uwsUOOXNVNwIbw0LLK-212" style="edgeStyle=orthogonalEdgeStyle;rounded=0;orthogonalLoop=1;jettySize=auto;html=1;exitX=0.5;exitY=0;exitDx=0;exitDy=0;entryX=0.159;entryY=0.006;entryDx=0;entryDy=0;entryPerimeter=0;" parent="1" source="a1uwsUOOXNVNwIbw0LLK-195" target="a1uwsUOOXNVNwIbw0LLK-7" edge="1">
          <mxGeometry relative="1" as="geometry" />
        </mxCell>
        <mxCell id="a1uwsUOOXNVNwIbw0LLK-216" value="Tx&lt;span style=&quot;color: rgba(0, 0, 0, 0); font-family: monospace; font-size: 0px; text-align: start; text-wrap-mode: nowrap;&quot;&gt;%3CmxGraphModel%3E%3Croot%3E%3CmxCell%20id%3D%220%22%2F%3E%3CmxCell%20id%3D%221%22%20parent%3D%220%22%2F%3E%3CmxCell%20id%3D%222%22%20value%3D%22%22%20style%3D%22endArrow%3Dclassic%3BstartArrow%3Dclassic%3Bhtml%3D1%3Brounded%3D0%3BexitX%3D1%3BexitY%3D0.25%3BexitDx%3D0%3BexitDy%3D0%3BentryX%3D0.125%3BentryY%3D0.05%3BentryDx%3D0%3BentryDy%3D0%3BentryPerimeter%3D0%3B%22%20edge%3D%221%22%20parent%3D%221%22%3E%3CmxGeometry%20width%3D%2250%22%20height%3D%2250%22%20relative%3D%221%22%20as%3D%22geometry%22%3E%3CmxPoint%20x%3D%22350%22%20y%3D%221054%22%20as%3D%22sourcePoint%22%2F%3E%3CmxPoint%20x%3D%22370%22%20y%3D%221103%22%20as%3D%22targetPoint%22%2F%3E%3C%2FmxGeometry%3E%3C%2FmxCell%3E%3C%2Froot%3E%3C%2FmxGraphModel%3E&lt;/span&gt;" style="text;html=1;align=center;verticalAlign=middle;whiteSpace=wrap;rounded=0;" parent="1" vertex="1">
          <mxGeometry x="40" y="100" width="60" height="30" as="geometry" />
        </mxCell>
        <mxCell id="a1uwsUOOXNVNwIbw0LLK-217" value="Rx" style="text;html=1;align=center;verticalAlign=middle;whiteSpace=wrap;rounded=0;" parent="1" vertex="1">
          <mxGeometry x="450" y="100" width="60" height="30" as="geometry" />
        </mxCell>
        <mxCell id="a1uwsUOOXNVNwIbw0LLK-220" value="AXI Decoding" style="text;html=1;align=center;verticalAlign=middle;whiteSpace=wrap;rounded=0;" parent="1" vertex="1">
          <mxGeometry x="150" y="120" width="120" height="30" as="geometry" />
        </mxCell>
        <mxCell id="a1uwsUOOXNVNwIbw0LLK-221" value="TLP Header" style="text;html=1;align=center;verticalAlign=middle;whiteSpace=wrap;rounded=0;" parent="1" vertex="1">
          <mxGeometry x="150" y="160" width="120" height="30" as="geometry" />
        </mxCell>
        <mxCell id="a1uwsUOOXNVNwIbw0LLK-222" value="TLP Packet" style="text;html=1;align=center;verticalAlign=middle;whiteSpace=wrap;rounded=0;" parent="1" vertex="1">
          <mxGeometry x="150" y="200" width="120" height="30" as="geometry" />
        </mxCell>
        <mxCell id="a1uwsUOOXNVNwIbw0LLK-223" value="TLP Classifier" style="text;html=1;align=center;verticalAlign=middle;whiteSpace=wrap;rounded=0;" parent="1" vertex="1">
          <mxGeometry x="150" y="250" width="120" height="30" as="geometry" />
        </mxCell>
        <mxCell id="a1uwsUOOXNVNwIbw0LLK-224" value="TLP Queue" style="text;html=1;align=center;verticalAlign=middle;whiteSpace=wrap;rounded=0;" parent="1" vertex="1">
          <mxGeometry x="80" y="290" width="120" height="30" as="geometry" />
        </mxCell>
        <mxCell id="a1uwsUOOXNVNwIbw0LLK-225" value="TL Interface" style="text;html=1;align=center;verticalAlign=middle;whiteSpace=wrap;rounded=0;" parent="1" vertex="1">
          <mxGeometry x="80" y="400" width="120" height="30" as="geometry" />
        </mxCell>
        <mxCell id="a1uwsUOOXNVNwIbw0LLK-226" value="FC Counter&lt;span style=&quot;color: rgba(0, 0, 0, 0); font-family: monospace; font-size: 0px; text-align: start; text-wrap-mode: nowrap;&quot;&gt;%3CmxGraphModel%3E%3Croot%3E%3CmxCell%20id%3D%220%22%2F%3E%3CmxCell%20id%3D%221%22%20parent%3D%220%22%2F%3E%3CmxCell%20id%3D%222%22%20value%3D%22TL%20Interface%22%20style%3D%22text%3Bhtml%3D1%3Balign%3Dcenter%3BverticalAlign%3Dmiddle%3BwhiteSpace%3Dwrap%3Brounded%3D0%3B%22%20vertex%3D%221%22%20parent%3D%221%22%3E%3CmxGeometry%20x%3D%2280%22%20y%3D%22400%22%20width%3D%22120%22%20height%3D%2230%22%20as%3D%22geometry%22%2F%3E%3C%2FmxCell%3E%3C%2Froot%3E%3C%2FmxGraphModel%3E&lt;/span&gt;" style="text;html=1;align=center;verticalAlign=middle;whiteSpace=wrap;rounded=0;" parent="1" vertex="1">
          <mxGeometry x="250" y="320" width="120" height="30" as="geometry" />
        </mxCell>
        <mxCell id="a1uwsUOOXNVNwIbw0LLK-229" value="FC Control" style="text;html=1;align=center;verticalAlign=middle;whiteSpace=wrap;rounded=0;" parent="1" vertex="1">
          <mxGeometry x="250" y="385" width="120" height="30" as="geometry" />
        </mxCell>
        <mxCell id="a1uwsUOOXNVNwIbw0LLK-230" style="edgeStyle=orthogonalEdgeStyle;rounded=0;orthogonalLoop=1;jettySize=auto;html=1;exitX=0.5;exitY=1;exitDx=0;exitDy=0;entryX=0.794;entryY=1.006;entryDx=0;entryDy=0;entryPerimeter=0;" parent="1" source="a1uwsUOOXNVNwIbw0LLK-80" target="a1uwsUOOXNVNwIbw0LLK-5" edge="1">
          <mxGeometry relative="1" as="geometry" />
        </mxCell>
        <mxCell id="a1uwsUOOXNVNwIbw0LLK-231" style="edgeStyle=orthogonalEdgeStyle;rounded=0;orthogonalLoop=1;jettySize=auto;html=1;exitX=0.5;exitY=1;exitDx=0;exitDy=0;entryX=0.291;entryY=1.003;entryDx=0;entryDy=0;entryPerimeter=0;" parent="1" source="a1uwsUOOXNVNwIbw0LLK-225" target="a1uwsUOOXNVNwIbw0LLK-5" edge="1">
          <mxGeometry relative="1" as="geometry" />
        </mxCell>
        <mxCell id="a1uwsUOOXNVNwIbw0LLK-234" value="Credit Manager" style="text;html=1;align=center;verticalAlign=middle;whiteSpace=wrap;rounded=0;" parent="1" vertex="1">
          <mxGeometry x="460" y="320" width="120" height="30" as="geometry" />
        </mxCell>
        <mxCell id="a1uwsUOOXNVNwIbw0LLK-235" value="FC Update" style="text;html=1;align=center;verticalAlign=middle;whiteSpace=wrap;rounded=0;" parent="1" vertex="1">
          <mxGeometry x="460" y="385" width="120" height="30" as="geometry" />
        </mxCell>
        <mxCell id="a1uwsUOOXNVNwIbw0LLK-237" value="" style="rounded=0;whiteSpace=wrap;html=1;" parent="1" vertex="1">
          <mxGeometry x="652.5" y="260" width="120" height="30" as="geometry" />
        </mxCell>
        <mxCell id="a1uwsUOOXNVNwIbw0LLK-238" value="TLP Queue" style="text;html=1;align=center;verticalAlign=middle;whiteSpace=wrap;rounded=0;" parent="1" vertex="1">
          <mxGeometry x="652.5" y="260" width="120" height="30" as="geometry" />
        </mxCell>
        <mxCell id="on6ZJ3tJFzt3UGrgcicv-7" style="edgeStyle=orthogonalEdgeStyle;rounded=0;orthogonalLoop=1;jettySize=auto;html=1;exitX=0.5;exitY=0;exitDx=0;exitDy=0;" parent="1" source="a1uwsUOOXNVNwIbw0LLK-242" edge="1">
          <mxGeometry relative="1" as="geometry">
            <mxPoint x="360" y="40" as="targetPoint" />
          </mxGeometry>
        </mxCell>
        <mxCell id="a1uwsUOOXNVNwIbw0LLK-242" value="Completion ID match" style="text;html=1;align=center;verticalAlign=middle;whiteSpace=wrap;rounded=0;" parent="1" vertex="1">
          <mxGeometry x="300" y="130" width="120" height="30" as="geometry" />
        </mxCell>
        <mxCell id="a1uwsUOOXNVNwIbw0LLK-243" value="TLP Classifier" style="text;html=1;align=center;verticalAlign=middle;whiteSpace=wrap;rounded=0;" parent="1" vertex="1">
          <mxGeometry x="652.5" y="330" width="120" height="30" as="geometry" />
        </mxCell>
        <mxCell id="a1uwsUOOXNVNwIbw0LLK-244" value="TL Interface" style="text;html=1;align=center;verticalAlign=middle;whiteSpace=wrap;rounded=0;" parent="1" vertex="1">
          <mxGeometry x="652.5" y="390" width="120" height="30" as="geometry" />
        </mxCell>
        <mxCell id="a1uwsUOOXNVNwIbw0LLK-245" value="Posted" style="text;html=1;align=center;verticalAlign=middle;whiteSpace=wrap;rounded=0;" parent="1" vertex="1">
          <mxGeometry x="20" y="330" width="120" height="30" as="geometry" />
        </mxCell>
        <mxCell id="a1uwsUOOXNVNwIbw0LLK-246" value="Non-posted" style="text;html=1;align=center;verticalAlign=middle;whiteSpace=wrap;rounded=0;" parent="1" vertex="1">
          <mxGeometry x="85" y="330" width="120" height="30" as="geometry" />
        </mxCell>
        <mxCell id="a1uwsUOOXNVNwIbw0LLK-247" value="Completion" style="text;html=1;align=center;verticalAlign=middle;whiteSpace=wrap;rounded=0;" parent="1" vertex="1">
          <mxGeometry x="552.5" y="215" width="120" height="30" as="geometry" />
        </mxCell>
        <mxCell id="a1uwsUOOXNVNwIbw0LLK-248" value="TLP Generator" style="text;html=1;align=center;verticalAlign=middle;whiteSpace=wrap;rounded=0;" parent="1" vertex="1">
          <mxGeometry x="42.5" y="140" width="120" height="30" as="geometry" />
        </mxCell>
        <mxCell id="a1uwsUOOXNVNwIbw0LLK-249" value="TLP Sequence" style="text;html=1;align=center;verticalAlign=middle;whiteSpace=wrap;rounded=0;" parent="1" vertex="1">
          <mxGeometry x="70" y="520" width="120" height="30" as="geometry" />
        </mxCell>
        <mxCell id="a1uwsUOOXNVNwIbw0LLK-250" value="TLP LCRC" style="text;html=1;align=center;verticalAlign=middle;whiteSpace=wrap;rounded=0;" parent="1" vertex="1">
          <mxGeometry x="70" y="567.5" width="120" height="30" as="geometry" />
        </mxCell>
        <mxCell id="a1uwsUOOXNVNwIbw0LLK-251" value="DLLP Generator" style="text;html=1;align=center;verticalAlign=middle;whiteSpace=wrap;rounded=0;" parent="1" vertex="1">
          <mxGeometry x="230" y="520" width="120" height="30" as="geometry" />
        </mxCell>
        <mxCell id="a1uwsUOOXNVNwIbw0LLK-252" value="DLLP CRC" style="text;html=1;align=center;verticalAlign=middle;whiteSpace=wrap;rounded=0;" parent="1" vertex="1">
          <mxGeometry x="230" y="567.5" width="120" height="30" as="geometry" />
        </mxCell>
        <mxCell id="a1uwsUOOXNVNwIbw0LLK-253" value="DLL Interface" style="text;html=1;align=center;verticalAlign=middle;whiteSpace=wrap;rounded=0;" parent="1" vertex="1">
          <mxGeometry x="150" y="770" width="120" height="30" as="geometry" />
        </mxCell>
        <mxCell id="a1uwsUOOXNVNwIbw0LLK-254" value="DLCMSM" style="text;html=1;align=center;verticalAlign=middle;whiteSpace=wrap;rounded=0;" parent="1" vertex="1">
          <mxGeometry x="355" y="635" width="120" height="30" as="geometry" />
        </mxCell>
        <mxCell id="a1uwsUOOXNVNwIbw0LLK-256" value="DLLP Checker" style="text;html=1;align=center;verticalAlign=middle;whiteSpace=wrap;rounded=0;" parent="1" vertex="1">
          <mxGeometry x="482.5" y="650" width="120" height="30" as="geometry" />
        </mxCell>
        <mxCell id="a1uwsUOOXNVNwIbw0LLK-257" value="DLLP CRC" style="text;html=1;align=center;verticalAlign=middle;whiteSpace=wrap;rounded=0;" parent="1" vertex="1">
          <mxGeometry x="482.5" y="700" width="120" height="30" as="geometry" />
        </mxCell>
        <mxCell id="a1uwsUOOXNVNwIbw0LLK-258" value="Sequence" style="text;html=1;align=center;verticalAlign=middle;whiteSpace=wrap;rounded=0;" parent="1" vertex="1">
          <mxGeometry x="632.5" y="635" width="120" height="30" as="geometry" />
        </mxCell>
        <mxCell id="a1uwsUOOXNVNwIbw0LLK-259" value="LCRC" style="text;html=1;align=center;verticalAlign=middle;whiteSpace=wrap;rounded=0;" parent="1" vertex="1">
          <mxGeometry x="632.5" y="680" width="120" height="30" as="geometry" />
        </mxCell>
        <mxCell id="a1uwsUOOXNVNwIbw0LLK-260" value="TLP Checker" style="text;html=1;align=center;verticalAlign=middle;whiteSpace=wrap;rounded=0;" parent="1" vertex="1">
          <mxGeometry x="632.5" y="597.5" width="120" height="30" as="geometry" />
        </mxCell>
        <mxCell id="a1uwsUOOXNVNwIbw0LLK-261" value="DLL Interface" style="text;html=1;align=center;verticalAlign=middle;whiteSpace=wrap;rounded=0;" parent="1" vertex="1">
          <mxGeometry x="560" y="760" width="120" height="30" as="geometry" />
        </mxCell>
        <mxCell id="on6ZJ3tJFzt3UGrgcicv-8" value="" style="shape=datastore;whiteSpace=wrap;html=1;rotation=-180;" parent="1" vertex="1">
          <mxGeometry x="180" y="330" width="60" height="60" as="geometry" />
        </mxCell>
        <mxCell id="a1uwsUOOXNVNwIbw0LLK-116" value="" style="endArrow=classic;startArrow=classic;html=1;rounded=0;" parent="1" edge="1">
          <mxGeometry width="50" height="50" relative="1" as="geometry">
            <mxPoint x="220" y="380" as="sourcePoint" />
            <mxPoint x="250" y="400" as="targetPoint" />
          </mxGeometry>
        </mxCell>
        <mxCell id="on6ZJ3tJFzt3UGrgcicv-9" value="Completion" style="text;html=1;align=center;verticalAlign=middle;whiteSpace=wrap;rounded=0;" parent="1" vertex="1">
          <mxGeometry x="150" y="330" width="120" height="30" as="geometry" />
        </mxCell>
        <mxCell id="on6ZJ3tJFzt3UGrgcicv-10" value="" style="shape=datastore;whiteSpace=wrap;html=1;rotation=0;" parent="1" vertex="1">
          <mxGeometry x="720" y="185" width="60" height="60" as="geometry" />
        </mxCell>
        <mxCell id="on6ZJ3tJFzt3UGrgcicv-16" style="edgeStyle=orthogonalEdgeStyle;rounded=0;orthogonalLoop=1;jettySize=auto;html=1;exitX=0.5;exitY=0;exitDx=0;exitDy=0;entryX=0.5;entryY=0;entryDx=0;entryDy=0;" parent="1" source="on6ZJ3tJFzt3UGrgcicv-11" target="a1uwsUOOXNVNwIbw0LLK-6" edge="1">
          <mxGeometry relative="1" as="geometry">
            <Array as="points">
              <mxPoint x="683" y="165" />
              <mxPoint x="620" y="165" />
            </Array>
          </mxGeometry>
        </mxCell>
        <mxCell id="on6ZJ3tJFzt3UGrgcicv-11" value="" style="shape=datastore;whiteSpace=wrap;html=1;rotation=0;" parent="1" vertex="1">
          <mxGeometry x="652.5" y="185" width="60" height="60" as="geometry" />
        </mxCell>
        <mxCell id="on6ZJ3tJFzt3UGrgcicv-12" value="Posted" style="text;html=1;align=center;verticalAlign=middle;whiteSpace=wrap;rounded=0;" parent="1" vertex="1">
          <mxGeometry x="690" y="215" width="120" height="30" as="geometry" />
        </mxCell>
        <mxCell id="pd-JP9wfT1QG6o8hzVek-5" style="edgeStyle=orthogonalEdgeStyle;rounded=0;orthogonalLoop=1;jettySize=auto;html=1;exitX=0.5;exitY=1;exitDx=0;exitDy=0;" parent="1" source="on6ZJ3tJFzt3UGrgcicv-13" edge="1">
          <mxGeometry relative="1" as="geometry">
            <mxPoint x="520" y="220" as="targetPoint" />
          </mxGeometry>
        </mxCell>
        <mxCell id="on6ZJ3tJFzt3UGrgcicv-13" value="Non-posted" style="text;html=1;align=center;verticalAlign=middle;whiteSpace=wrap;rounded=0;" parent="1" vertex="1">
          <mxGeometry x="622.5" y="215" width="120" height="30" as="geometry" />
        </mxCell>
        <mxCell id="on6ZJ3tJFzt3UGrgcicv-19" style="edgeStyle=orthogonalEdgeStyle;rounded=0;orthogonalLoop=1;jettySize=auto;html=1;exitX=0.5;exitY=0;exitDx=0;exitDy=0;entryX=0.715;entryY=-0.004;entryDx=0;entryDy=0;entryPerimeter=0;" parent="1" source="on6ZJ3tJFzt3UGrgcicv-10" target="a1uwsUOOXNVNwIbw0LLK-6" edge="1">
          <mxGeometry relative="1" as="geometry" />
        </mxCell>
        <mxCell id="pd-JP9wfT1QG6o8hzVek-1" value="" style="rounded=0;whiteSpace=wrap;html=1;" parent="1" vertex="1">
          <mxGeometry x="420" y="195" width="100" height="50" as="geometry" />
        </mxCell>
        <mxCell id="pd-JP9wfT1QG6o8hzVek-6" style="edgeStyle=orthogonalEdgeStyle;rounded=0;orthogonalLoop=1;jettySize=auto;html=1;entryX=0.5;entryY=0;entryDx=0;entryDy=0;" parent="1" target="pd-JP9wfT1QG6o8hzVek-3" edge="1">
          <mxGeometry relative="1" as="geometry">
            <mxPoint x="420" y="220" as="sourcePoint" />
          </mxGeometry>
        </mxCell>
        <mxCell id="pd-JP9wfT1QG6o8hzVek-2" value="Completion Creator" style="text;html=1;align=center;verticalAlign=middle;whiteSpace=wrap;rounded=0;" parent="1" vertex="1">
          <mxGeometry x="410" y="205" width="120" height="30" as="geometry" />
        </mxCell>
        <mxCell id="pd-JP9wfT1QG6o8hzVek-3" value="" style="rounded=0;whiteSpace=wrap;html=1;" parent="1" vertex="1">
          <mxGeometry x="294" y="245" width="120" height="50" as="geometry" />
        </mxCell>
        <mxCell id="pd-JP9wfT1QG6o8hzVek-9" style="edgeStyle=orthogonalEdgeStyle;rounded=0;orthogonalLoop=1;jettySize=auto;html=1;exitX=0;exitY=0.5;exitDx=0;exitDy=0;" parent="1" source="pd-JP9wfT1QG6o8hzVek-4" target="a1uwsUOOXNVNwIbw0LLK-223" edge="1">
          <mxGeometry relative="1" as="geometry" />
        </mxCell>
        <mxCell id="pd-JP9wfT1QG6o8hzVek-4" value="TLP Completion Generator" style="text;html=1;align=center;verticalAlign=middle;whiteSpace=wrap;rounded=0;" parent="1" vertex="1">
          <mxGeometry x="294" y="255" width="120" height="30" as="geometry" />
        </mxCell>
        <mxCell id="pd-JP9wfT1QG6o8hzVek-10" style="edgeStyle=orthogonalEdgeStyle;rounded=0;orthogonalLoop=1;jettySize=auto;html=1;exitX=0.25;exitY=0;exitDx=0;exitDy=0;entryX=0.5;entryY=0;entryDx=0;entryDy=0;" parent="1" source="a1uwsUOOXNVNwIbw0LLK-6" target="pd-JP9wfT1QG6o8hzVek-1" edge="1">
          <mxGeometry relative="1" as="geometry">
            <Array as="points">
              <mxPoint x="535" y="80" />
              <mxPoint x="470" y="80" />
            </Array>
          </mxGeometry>
        </mxCell>
        <mxCell id="pd-JP9wfT1QG6o8hzVek-14" value="" style="endArrow=classic;html=1;rounded=0;" parent="1" edge="1">
          <mxGeometry width="50" height="50" relative="1" as="geometry">
            <mxPoint x="540" y="950" as="sourcePoint" />
            <mxPoint x="540" y="920" as="targetPoint" />
          </mxGeometry>
        </mxCell>
        <mxCell id="pd-JP9wfT1QG6o8hzVek-15" value="" style="endArrow=classic;html=1;rounded=0;" parent="1" edge="1">
          <mxGeometry width="50" height="50" relative="1" as="geometry">
            <mxPoint x="619.5" y="950" as="sourcePoint" />
            <mxPoint x="619.5" y="920" as="targetPoint" />
          </mxGeometry>
        </mxCell>
        <mxCell id="pd-JP9wfT1QG6o8hzVek-16" value="" style="endArrow=classic;html=1;rounded=0;" parent="1" edge="1">
          <mxGeometry width="50" height="50" relative="1" as="geometry">
            <mxPoint x="700" y="950" as="sourcePoint" />
            <mxPoint x="700" y="920" as="targetPoint" />
          </mxGeometry>
        </mxCell>
        <mxCell id="pd-JP9wfT1QG6o8hzVek-17" value="" style="endArrow=classic;html=1;rounded=0;" parent="1" edge="1">
          <mxGeometry width="50" height="50" relative="1" as="geometry">
            <mxPoint x="540" y="860" as="sourcePoint" />
            <mxPoint x="540" y="830" as="targetPoint" />
          </mxGeometry>
        </mxCell>
        <mxCell id="pd-JP9wfT1QG6o8hzVek-18" value="" style="endArrow=classic;html=1;rounded=0;" parent="1" edge="1">
          <mxGeometry width="50" height="50" relative="1" as="geometry">
            <mxPoint x="621.5" y="860" as="sourcePoint" />
            <mxPoint x="621.5" y="830" as="targetPoint" />
          </mxGeometry>
        </mxCell>
        <mxCell id="pd-JP9wfT1QG6o8hzVek-19" value="" style="endArrow=classic;html=1;rounded=0;" parent="1" edge="1">
          <mxGeometry width="50" height="50" relative="1" as="geometry">
            <mxPoint x="700" y="860" as="sourcePoint" />
            <mxPoint x="700" y="830" as="targetPoint" />
          </mxGeometry>
        </mxCell>
      </root>
    </mxGraphModel>
  </diagram>
</mxfile>
